<?xml version="1.0" encoding="UTF-8"?>
<svg id="Layer_1" data-name="Layer 1" xmlns="http://www.w3.org/2000/svg" viewBox="0 0 60 60">
  <defs>
    <style>
      .cls-1 {
        fill: #a700ff;
        stroke-width: 0px;
      }
    </style>
  </defs>
  <path class="cls-1" d="M4.37,13c1.06,1.09,2.11,2.19,3.18,3.27,1.44,1.46,2.89,2.91,4.34,4.35.9.89,1.92.9,2.81,0,1.97-1.96,3.93-3.93,5.9-5.9.95-.95.94-1.96,0-2.9-2.38-2.38-4.76-4.76-7.15-7.14-.13-.13-.25-.27-.43-.47,1.42-.41,2.81-.47,4.19-.3,5.61.72,9.68,4.67,10.58,10.25.26,1.65.15,3.3-.32,4.91-.11.38-.03.59.25.86,8.69,8.28,17.37,16.57,26.07,24.84,1.52,1.45,2.45,3.12,2.33,5.25-.15,2.68-1.49,4.61-3.96,5.6-2.49,1-4.88.58-6.78-1.34-3.22-3.25-6.35-6.61-9.51-9.92-4.91-5.14-9.82-10.29-14.73-15.43-.49-.51-.9-1.27-1.5-1.47-.58-.2-1.36.18-2.05.3-6.3,1.07-12.75-3.71-13.59-10.06-.21-1.55-.18-3.08.18-4.6.06-.04.13-.09.19-.13M52.62,49.7c.01-1.64-1.29-2.96-2.92-2.95-1.64,0-2.93,1.3-2.93,2.95,0,1.61,1.28,2.89,2.9,2.91,1.66.02,2.95-1.25,2.96-2.9"/>
  <path class="cls-1" d="M23.66,34.74c.72.76,1.41,1.48,2.22,2.34-.83.79-1.67,1.54-2.46,2.33-3.45,3.44-6.89,6.89-10.34,10.32-.4.39-.69.8-.49,1.38.25.76,1.17.97,1.79.4.66-.61,1.28-1.26,1.91-1.9,3.53-3.53,7.06-7.07,10.59-10.6.13-.13.27-.25.46-.41.72.75,1.42,1.49,2.22,2.32-1.28,1.24-2.55,2.45-3.79,3.69-3.29,3.27-6.57,6.55-9.85,9.84-2.19,2.19-5.47,2.25-7.72.13-.76-.72-1.5-1.46-2.22-2.22-2.03-2.16-2.03-5.46.03-7.54,4.55-4.58,9.13-9.14,13.7-13.7.06-.06.12-.11.13-.12.76.69,1.51,1.37,2.32,2.11-.54.55-1.03,1.05-1.53,1.55-3.78,3.78-7.57,7.56-11.34,11.35-.21.21-.42.48-.5.77-.14.49.05.91.51,1.16.51.28.97.15,1.37-.24,1.02-1.02,2.04-2.04,3.06-3.06,3.19-3.2,6.38-6.39,9.57-9.59.09-.09.19-.16.35-.3"/>
  <path class="cls-1" d="M52.56,5.1c.97.99,1.9,1.95,2.9,2.96-.51.7-1.06,1.48-1.62,2.25-.35.49-.77.95-1.06,1.47-.79,1.41-1.99,2.3-3.45,2.94-.59.26-1.14.69-1.61,1.15-3.27,3.24-6.52,6.5-9.77,9.75-.16.16-.29.36-.48.59-1.08-1.02-2.07-1.97-3.16-3,1.1-1.07,2.18-2.11,3.24-3.17,2.47-2.46,4.98-4.89,7.39-7.42.68-.72,1.11-1.7,1.58-2.6.31-.59.68-1.06,1.23-1.45,1.61-1.13,3.18-2.3,4.81-3.48"/>
</svg>