<?xml version="1.0" encoding="UTF-8"?>
<svg id="Layer_1" data-name="Layer 1" xmlns="http://www.w3.org/2000/svg" viewBox="0 0 250.97 65.51">
  <defs>
    <style>
      .cls-1 {
        fill: #fff;
        stroke-width: 0px;
      }
    </style>
  </defs>
  <path class="cls-1" d="M14.61,12.22h3.98v33.15h-3.98V12.22Z"/>
  <path class="cls-1" d="M23.33,16.58v-4.36h4.07v4.36h-4.07ZM23.37,20.27h3.98v25.1h-3.98v-25.1Z"/>
  <path class="cls-1" d="M32.13,24.39c0-2.6,1.09-4.12,3.84-4.12h9c5.45,0,8.48,2.37,8.48,8.15v16.95h-3.98v-16.24c0-3.41-1.23-5.64-5.02-5.64h-6.87c-.95,0-1.47.33-1.47,1.61v20.27h-3.98v-20.98Z"/>
  <path class="cls-1" d="M72.48,20.27c4.45,0,6.54,2.75,6.54,6.87v14.44c0,2.56-.99,3.79-3.93,3.79h-11.18c-4.59,0-6.54-2.46-6.54-7.67s1.94-7.62,6.54-7.62h11.13v-2.98c0-2.13-1.04-3.6-3.55-3.6h-12.22v-3.22h13.21ZM64.66,33.3c-2.46,0-3.13,1.7-3.13,4.4s.66,4.45,3.13,4.45h9.05c.9,0,1.33-.52,1.33-1.28v-7.58h-10.37Z"/>
  <path class="cls-1" d="M83.75,29.32c0-6.2,3.03-9.05,9.23-9.05h2.75v3.22h-2.04c-4.36,0-5.97,2.23-5.97,6.82v15.06h-3.98v-16.05Z"/>
  <path class="cls-1" d="M122.1,32.73c0,9.52-3.88,12.93-12.88,12.93s-12.88-3.41-12.88-12.93,3.88-12.74,12.88-12.74,12.88,3.27,12.88,12.74ZM109.22,42.44c6.39,0,8.71-2.6,8.71-9.71s-2.32-9.52-8.71-9.52-8.71,2.42-8.71,9.52,2.32,9.71,8.71,9.71Z"/>
  <path class="cls-1" d="M127.17,45.37v-20.84h-3.5v-4.26h3.5c0-6.63,4.83-8.43,10.99-8.43.47,0,.95.05,1.42.05v4.07c-.33-.05-.62-.05-.95-.05-3.03,0-5.92.24-5.92,4.36h6.87v4.26h-6.87v20.84h-5.54Z"/>
  <path class="cls-1" d="M166.75,32.78c0,10.04-4.36,12.88-13.35,12.88s-13.35-2.84-13.35-12.88,4.36-12.79,13.35-12.79,13.35,2.84,13.35,12.79ZM153.4,41.4c5.68,0,7.62-2.46,7.62-8.62s-1.94-8.52-7.62-8.52-7.62,2.37-7.62,8.52,1.94,8.62,7.62,8.62Z"/>
  <path class="cls-1" d="M170.35,29.75c0-6.72,3.41-9.47,10.13-9.47h3.74v4.26h-2.32c-4.45,0-6.01,2.23-6.01,6.68v14.16h-5.54v-15.63Z"/>
  <path class="cls-1" d="M194.97,45.37c-8.05,0-10.28-5.02-10.28-12.6s2.23-12.5,10.28-12.5h9.33c2.84,0,4.26,1.42,4.26,4.26v18.9c0,7.1-3.27,10.23-10.84,10.23h-11.27v-4.26h11.27c2.84,0,4.93-1.28,5.3-4.03h-8.05ZM196.35,24.54c-5.35,0-5.92,3.5-5.92,8.24s.57,8.33,5.92,8.33h6.68v-15.15c0-.95-.47-1.42-1.42-1.42h-5.26Z"/>
  <path class="cls-1" d="M221.63,45.37c-8.05,0-9.47-4.55-9.47-12.6,0-9.94,3.6-12.79,12.12-12.79,7.1,0,12.08,1.89,12.08,9.94,0,2.84-1.04,4.74-3.88,4.74h-14.59c0,3.79.66,6.44,5.4,6.44h12.27v4.26h-13.92ZM229.4,30.41c1.09,0,1.23-.76,1.23-1.47,0-3.31-3.03-4.69-6.35-4.69-4.74,0-6.39,1.89-6.39,6.16h11.51Z"/>
</svg>