<?xml version="1.0" encoding="UTF-8"?> <svg xmlns="http://www.w3.org/2000/svg" id="Layer_1" viewBox="0 0 294.74 35.28"><defs><style>.cls-1{fill:#fff;}.cls-1,.cls-2{stroke-width:0px;}.cls-2{fill:#ffcf01;}</style></defs><rect class="cls-1" x="58.21" y=".34" width=".5" height="34.66"></rect><path class="cls-2" d="m24.23,28.95l-9.93-13.56v9.87h3.95v9.74H0v-9.74h3.7v-15.17H0V.34h14.34l9.89,13.66L34.13.34h14.34v9.74h-3.7v15.17h3.7v9.74h-18.25v-9.74h3.94v-9.87l-9.93,13.56Z"></path><path class="cls-1" d="m73.04.34l3.98,29.57V.34h2.79v34.66h-4.51l-4.08-30.77v30.77h-2.74V.34h4.56Z"></path><path class="cls-1" d="m93.01.34v2.74h-5.23v12.58h4.99v2.74h-4.99v13.87h5.28v2.74h-8.45V.34h8.4Z"></path><path class="cls-1" d="m103.67.34c2.88,0,4.03,1.73,4.03,4.27v8.69c0,2.21-.91,3.5-3.31,3.7,2.5,0,3.55,1.01,3.55,4.03v13.97h-3.22v-14.74c0-1.25-.62-1.92-2.06-1.92h-2.4v16.66h-3.17V.34h6.58Zm-3.41,15.27h1.97c1.92,0,2.3-.77,2.3-2.3v-7.92c0-1.44-.24-2.3-1.87-2.3h-2.4v12.53Z"></path><path class="cls-1" d="m122.29,4.8v4.46h-3.17v-4.37c0-1.49-.43-2.35-1.73-2.35s-1.92.91-1.92,2.5v3.31c0,1.63.05,2.35,1.06,4.03l4.7,8.06c.72,1.25,1.15,2.45,1.15,4.46v5.18c0,3.12-1.82,5.18-5.23,5.18-3.22,0-5.09-1.87-5.09-4.61v-5.28h3.17v4.66c0,1.87.67,2.59,1.97,2.59,1.44,0,2.02-.96,2.02-2.74v-4.18c0-2.26-.58-3.41-1.49-4.94l-4.08-7.1c-1.2-2.06-1.34-3.12-1.34-4.99v-3.65c0-3.12,1.54-5.04,5.09-5.04,3.31,0,4.9,1.54,4.9,4.8Z"></path><path class="cls-1" d="m131.7.36l4.26,9.27V.36h1.23v10.83h-1.88l-4.31-9.39v9.39h-1.24V.36h1.94Z"></path><path class="cls-1" d="m141.26.36v7.54c0,1.47.66,2.31,1.98,2.31s2-.81,2-2.47V.36h1.35v7.26c0,2.49-1.06,3.78-3.36,3.78s-3.34-1.3-3.34-3.46V.36h1.38Z"></path><path class="cls-1" d="m155.43,3.15v.28h-1.44v-.17c0-1.35-.48-1.86-1.56-1.86-.66,0-1.32.21-1.63.9-.21.47-.3,1.04-.3,2.1v2.62c0,2.02.39,3.13,1.84,3.13,1.17,0,1.79-.77,1.8-2.26h1.42v.19c0,2.21-1.09,3.25-3.25,3.25-.78,0-1.41-.18-1.88-.5-.97-.66-1.35-1.94-1.35-4.17v-2.28c0-3.03,1.08-4.17,3.46-4.17,1.95,0,2.88.92,2.88,2.91Z"></path><path class="cls-1" d="m159.26.36v9.63h3.96v1.2h-5.34V.36h1.38Z"></path><path class="cls-1" d="m170.76.36v1.2h-4.2v3.48h3.9v1.19h-3.9v3.76h4.31v1.2h-5.69V.36h5.58Z"></path><path class="cls-1" d="m177.78.36l3.52,10.83h-1.54l-.78-2.58h-4.19l-.79,2.58h-1.41l3.43-10.83h1.75Zm-.92,1.27l-1.74,5.8h3.51l-1.77-5.8Z"></path><path class="cls-1" d="m187.14.36c1.41,0,2.54.93,2.54,2.69,0,1.33-.72,2.26-1.98,2.5,1.17.19,1.74.73,1.77,2.79.02,1.01.14,1.92.36,2.85h-1.44c-.11-.25-.24-.77-.26-1.23-.03-.71-.1-1.75-.12-2.02-.11-1.57-.81-1.73-2.12-1.73h-1.17v4.98h-1.4V.36h3.81Zm-2.42,1.2v3.48h1.68c1.29,0,1.86-.66,1.86-1.81s-.57-1.66-1.56-1.66h-1.98Z"></path><path class="cls-1" d="m200.9.36v1.2h-4.2v3.48h3.9v1.19h-3.9v3.76h4.3v1.2h-5.68V.36h5.58Z"></path><path class="cls-1" d="m205.19.36l4.26,9.27V.36h1.23v10.83h-1.88l-4.31-9.39v9.39h-1.24V.36h1.93Z"></path><path class="cls-1" d="m219.58,1.23c.25.44.42,1.09.42,1.88v.15h-1.44c0-1.32-.57-1.98-1.75-1.98-.69,0-1.38.13-1.74.75-.29.5-.41,1.32-.41,2.56v2.47c0,2.27.54,3.18,2.25,3.18.57,0,1.19-.12,1.65-.47v-3.21h-1.98v-1.23h3.38v5.26c-.96.52-2,.79-3.1.79s-2.43-.27-3.06-1.52c-.38-.73-.55-1.81-.55-3.45v-1.51c0-1.86.2-2.83.69-3.57.6-.9,1.68-1.21,2.95-1.21,1.37,0,2.25.33,2.7,1.1Z"></path><path class="cls-1" d="m224.13.36v10.83h-1.39V.36h1.39Z"></path><path class="cls-1" d="m228.81.36l4.26,9.27V.36h1.23v10.83h-1.88l-4.31-9.39v9.39h-1.24V.36h1.93Z"></path><path class="cls-1" d="m242.58.36v1.2h-4.2v3.48h3.9v1.19h-3.9v3.76h4.31v1.2h-5.69V.36h5.58Z"></path><path class="cls-1" d="m250.48.36v1.2h-4.2v3.48h3.9v1.19h-3.9v3.76h4.3v1.2h-5.68V.36h5.58Z"></path><path class="cls-1" d="m256.6.36c1.41,0,2.54.93,2.54,2.69,0,1.33-.72,2.26-1.98,2.5,1.17.19,1.74.73,1.77,2.79.01,1.01.13,1.92.36,2.85h-1.44c-.1-.25-.24-.77-.25-1.23-.03-.71-.11-1.75-.12-2.02-.1-1.57-.81-1.73-2.12-1.73h-1.17v4.98h-1.39V.36h3.81Zm-2.42,1.2v3.48h1.68c1.29,0,1.86-.66,1.86-1.81s-.57-1.66-1.56-1.66h-1.98Z"></path><path class="cls-1" d="m263.01.36v10.83h-1.39V.36h1.39Z"></path><path class="cls-1" d="m267.69.36l4.26,9.27V.36h1.23v10.83h-1.88l-4.31-9.39v9.39h-1.24V.36h1.93Z"></path><path class="cls-1" d="m282.08,1.23c.25.44.42,1.09.42,1.88v.15h-1.44c0-1.32-.57-1.98-1.75-1.98-.69,0-1.38.13-1.74.75-.29.5-.41,1.32-.41,2.56v2.47c0,2.27.54,3.18,2.25,3.18.57,0,1.19-.12,1.65-.47v-3.21h-1.98v-1.23h3.38v5.26c-.96.52-2,.79-3.1.79s-2.43-.27-3.06-1.52c-.38-.73-.55-1.81-.55-3.45v-1.51c0-1.86.2-2.83.69-3.57.6-.9,1.68-1.21,2.95-1.21,1.37,0,2.25.33,2.7,1.1Z"></path><path class="cls-1" d="m133.56,18.21l2.11,2.69c.18-.62.25-1.56.25-2.33,0-.06,0-.57-.02-.75h1.14v1.08c0,1.02-.13,2.16-.6,2.97l1.74,2.33h-1.56l-.87-1.11c-.78.93-1.59,1.33-2.97,1.33-2.19,0-3.57-1.18-3.57-3.15,0-1.23.46-2.17,2.37-3.25-.83-.83-1.41-1.89-1.41-2.75,0-1.3.96-2.04,2.61-2.04s2.52.7,2.52,2.08c0,.96-.5,1.85-1.75,2.9Zm-1.2.6c-1.36.87-1.75,1.51-1.75,2.37,0,1.24.87,2.13,2.28,2.13.93,0,1.65-.39,2.15-1.12l-2.67-3.38Zm1.59-3.46c0-.66-.42-1.06-1.17-1.06s-1.2.42-1.2,1.09c0,.54.44,1.25,1.17,1.98.78-.66,1.2-1.36,1.2-2.01Z"></path><path class="cls-1" d="m146.07,13.36c1.41,0,2.54.93,2.54,2.69,0,1.33-.72,2.26-1.98,2.5,1.17.19,1.74.73,1.77,2.79.02,1.01.14,1.92.36,2.85h-1.44c-.11-.25-.24-.77-.26-1.23-.03-.71-.1-1.75-.12-2.02-.11-1.57-.81-1.73-2.12-1.73h-1.17v4.98h-1.4v-10.83h3.81Zm-2.42,1.2v3.48h1.68c1.29,0,1.86-.66,1.86-1.81s-.57-1.66-1.56-1.66h-1.98Z"></path><path class="cls-1" d="m155.17,13.36l3.53,10.83h-1.54l-.78-2.58h-4.18l-.79,2.58h-1.41l3.43-10.83h1.75Zm-.91,1.27l-1.74,5.8h3.51l-1.77-5.8Z"></path><path class="cls-1" d="m163.4,13.36c.84,0,1.56.17,2.07.48.5.3.95.79,1.21,1.89.2.76.26,1.84.26,3.25,0,1.95-.18,3.04-.69,3.84-.67,1.05-2.02,1.37-3.55,1.37h-2.47v-10.83h3.18Zm-.71,9.63c1.18,0,2.17-.15,2.56-1.26.24-.66.3-1.65.3-3.1,0-1.62-.11-2.61-.44-3.21-.39-.71-1.14-.85-1.96-.85h-1.54v8.43h1.08Z"></path><path class="cls-1" d="m170.44,13.36v10.83h-1.39v-10.83h1.39Z"></path><path class="cls-1" d="m178.69,14.29c.48.72.69,1.78.69,3.37v2.02c0,2.92-.61,4.68-3.49,4.68-2.28,0-3.32-1.3-3.32-4.2v-2.82c0-1.5.24-2.53.74-3.19.57-.77,1.51-1.06,2.65-1.06,1.22,0,2.16.35,2.73,1.2Zm-4.71,5.92c0,2.04.45,2.98,1.96,2.98.84,0,1.5-.21,1.8-1.08.18-.54.23-1.32.23-2.46v-2.56c0-2.22-.81-2.82-2.01-2.82-1.42,0-1.98.82-1.98,2.7v3.24Z"></path><path class="cls-1" d="m182.81,13.36v9.63h3.96v1.2h-5.34v-10.83h1.38Z"></path><path class="cls-1" d="m194.1,14.29c.48.72.69,1.78.69,3.37v2.02c0,2.92-.62,4.68-3.5,4.68-2.28,0-3.31-1.3-3.31-4.2v-2.82c0-1.5.24-2.53.73-3.19.57-.77,1.52-1.06,2.66-1.06,1.21,0,2.16.35,2.73,1.2Zm-4.71,5.92c0,2.04.45,2.98,1.96,2.98.84,0,1.5-.21,1.8-1.08.18-.54.22-1.32.22-2.46v-2.56c0-2.22-.81-2.82-2.01-2.82-1.42,0-1.98.82-1.98,2.7v3.24Z"></path><path class="cls-1" d="m203.05,14.23c.25.44.42,1.09.42,1.88v.15h-1.44c0-1.32-.57-1.98-1.75-1.98-.69,0-1.38.13-1.74.75-.28.5-.4,1.32-.4,2.56v2.47c0,2.26.54,3.18,2.25,3.18.57,0,1.18-.12,1.65-.46v-3.21h-1.98v-1.23h3.38v5.26c-.96.52-2,.79-3.11.79s-2.43-.27-3.06-1.52c-.38-.73-.55-1.81-.55-3.45v-1.51c0-1.86.19-2.83.69-3.57.6-.9,1.68-1.21,2.96-1.21,1.37,0,2.25.33,2.7,1.1Z"></path><path class="cls-1" d="m207.07,13.36v10.83h-1.39v-10.83h1.39Z"></path><path class="cls-1" d="m215.49,16.15v.28h-1.44v-.17c0-1.35-.48-1.86-1.56-1.86-.66,0-1.32.21-1.63.9-.21.47-.3,1.04-.3,2.1v2.62c0,2.03.39,3.13,1.85,3.13,1.17,0,1.78-.76,1.8-2.26h1.42v.2c0,2.21-1.09,3.25-3.25,3.25-.78,0-1.41-.18-1.88-.5-.97-.66-1.35-1.94-1.35-4.17v-2.28c0-3.03,1.08-4.17,3.46-4.17,1.95,0,2.88.92,2.88,2.91Z"></path><path class="cls-1" d="m221.78,13.36l3.53,10.83h-1.54l-.78-2.58h-4.18l-.79,2.58h-1.41l3.43-10.83h1.75Zm-.91,1.27l-1.74,5.8h3.51l-1.77-5.8Z"></path><path class="cls-1" d="m228.21,13.36v9.63h3.96v1.2h-5.34v-10.83h1.38Z"></path><path class="cls-1" d="m242.19,16.09v.24h-1.44v-.15c0-1.19-.53-1.81-1.63-1.81-1.05,0-1.71.57-1.71,1.56,0,.93.78,1.57,1.98,2.11.53.24.9.47,1.33.77,1.35.94,1.56,1.77,1.56,2.64,0,1.81-1.35,2.91-3.34,2.91-1.83,0-3.19-.84-3.19-3.06v-.42h1.37v.32c0,1.44.94,1.98,1.86,1.98,1.08,0,1.91-.63,1.91-1.72,0-.62-.36-1.25-1.26-1.71-1.76-.9-2.43-1.27-2.93-1.83-.48-.52-.69-1.19-.69-1.86,0-1.75,1.23-2.88,3.24-2.88s2.95.99,2.95,2.92Z"></path><path class="cls-1" d="m250.37,16.15v.28h-1.44v-.17c0-1.35-.48-1.86-1.56-1.86-.66,0-1.32.21-1.63.9-.21.47-.3,1.04-.3,2.1v2.62c0,2.03.39,3.13,1.84,3.13,1.17,0,1.79-.76,1.8-2.26h1.42v.2c0,2.21-1.09,3.25-3.25,3.25-.78,0-1.41-.18-1.88-.5-.97-.66-1.35-1.94-1.35-4.17v-2.28c0-3.03,1.08-4.17,3.46-4.17,1.95,0,2.88.92,2.88,2.91Z"></path><path class="cls-1" d="m253.77,13.36v10.83h-1.4v-10.83h1.4Z"></path><path class="cls-1" d="m261.54,13.36v1.2h-4.2v3.48h3.9v1.19h-3.9v3.76h4.3v1.2h-5.68v-10.83h5.58Z"></path><path class="cls-1" d="m265.31,13.36l4.26,9.27v-9.27h1.23v10.83h-1.88l-4.3-9.39v9.39h-1.25v-10.83h1.94Z"></path><path class="cls-1" d="m279.19,16.15v.28h-1.44v-.17c0-1.35-.48-1.86-1.56-1.86-.66,0-1.32.21-1.63.9-.21.47-.3,1.04-.3,2.1v2.62c0,2.03.39,3.13,1.85,3.13,1.17,0,1.78-.76,1.8-2.26h1.42v.2c0,2.21-1.09,3.25-3.25,3.25-.78,0-1.41-.18-1.88-.5-.97-.66-1.35-1.94-1.35-4.17v-2.28c0-3.03,1.08-4.17,3.46-4.17,1.95,0,2.88.92,2.88,2.91Z"></path><path class="cls-1" d="m286.68,13.36v1.2h-4.2v3.48h3.9v1.19h-3.9v3.76h4.31v1.2h-5.69v-10.83h5.58Z"></path><path class="cls-1" d="m294.65,16.09v.24h-1.44v-.15c0-1.19-.52-1.81-1.63-1.81-1.05,0-1.71.57-1.71,1.56,0,.93.78,1.57,1.98,2.11.52.24.9.47,1.33.77,1.35.94,1.56,1.77,1.56,2.64,0,1.81-1.35,2.91-3.34,2.91-1.83,0-3.2-.84-3.2-3.06v-.42h1.37v.32c0,1.44.95,1.98,1.86,1.98,1.08,0,1.9-.63,1.9-1.72,0-.62-.36-1.25-1.26-1.71-1.75-.9-2.43-1.27-2.92-1.83-.48-.52-.69-1.19-.69-1.86,0-1.75,1.23-2.88,3.24-2.88s2.96.99,2.96,2.92Z"></path><path class="cls-1" d="m248.91,34.98v-.34c.43-.03.77-.06.77-.42,0-.13-.04-.26-.07-.38l-.19-.65h-2.25l-.2.55c-.04.14-.08.26-.08.4,0,.45.48.48.87.5v.34h-2.63v-.34c.67-.03.89-.16,1.13-.83l1.73-4.73-.1-.15c.74-.24.95-.35,1.27-.59.12.43.14.49.29.94l1.41,4.34c.25.77.37.96,1.04,1.03v.34h-2.98Zm-.57-5.12l-.94,2.64h1.84l-.9-2.64Zm-22.21,3.7c-.28.46-.96,1.59-2.72,1.59-1.92,0-3.17-1.42-3.17-3.28,0-1.73,1.05-3.43,3.21-3.43,1.13,0,1.74.48,2.11.77l.43-.4.04,1.94-.28.05c-.11-.37-.27-.67-.69-1.12-.2-.21-.67-.62-1.33-.62-1.15,0-2.06.94-2.06,2.6,0,1.4.75,2.72,2.22,2.72,1.12,0,1.54-.62,1.87-1.1l.38.29Zm1.07,1.42v-.34c.72-.06.73-.22.73-.83,0-.22,0-.45,0-.68v-2.68c0-.42,0-.83-.03-1.03-.04-.38-.22-.43-.71-.48v-.34h2.73v.34c-.54.06-.73.07-.8.43-.05.21-.05.68-.05,1.06v.88c.55.03.93.04,1.47.04s.97-.01,1.51-.04v-1.07c0-1.16-.02-1.21-.89-1.29v-.34h2.77v.34c-.74.09-.74.1-.74,1.31v2.69c0,.25,0,1.06.04,1.25.04.33.23.4.71.44v.34h-2.77v-.34c.64-.07.81-.09.87-.53.02-.18.02-.43.02-.89v-1.17c-.51-.02-.93-.04-1.45-.04s-.98.02-1.53.04v1.17c0,1.33.03,1.33.85,1.42v.34h-2.73Zm7.87,0v-.34c.62-.08.75-.15.76-.82v-3.4c0-1.33,0-1.36-.76-1.47v-.34h2.65v.34c-.75.07-.75.11-.75,1.47v2.58c0,.23,0,.94.03,1.13.04.39.23.48.72.52v.34h-2.65Zm-18.18,0v-.34c.62-.08.75-.15.76-.82v-3.4c0-1.33,0-1.36-.76-1.47v-.34h2.65v.34c-.75.07-.75.11-.75,1.47v2.58c0,.23.01.94.03,1.13.04.39.22.48.72.52v.34h-2.65Zm-4.02,0v-.34c.8-.05.8-.09.81-1.27v-3.21l-2.23,4.91h-.56l-2.05-4.97-.05,3.75c0,.63.07.74.75.8v.34h-2.21v-.34c.51-.03.72-.1.75-.53.02-.17.05-.71.05-1.06l.09-2.67c0-.21,0-.52,0-.74,0-.63-.12-.68-.7-.69v-.34h2.01l1.99,4.85,2.19-4.85h1.94v.38c-.76.04-.77.13-.76,1.12v2.63c0,.44,0,.98.04,1.3.04.47.22.56.72.6v.34h-2.79Zm39.44,0v-.34c.53-.03.72-.04.8-.4.09-.42.12-4.21.12-4.87-.35-.33-.5-.39-.92-.43v-.34h1.92c.53.76.65.93,1.59,2.1l1.78,2.21v-2.86c0-1.01-.04-1.07-1.05-1.1v-.34h2.52v.34c-.7,0-.76.15-.77,1.19l-.09,4.93h-.38l-.57-.71c-.29-.36-.58-.73-.87-1.08l-2.52-3.11v3.31c0,1.03.07,1.07,1.05,1.17v.34h-2.61Zm-53.24-3.2c0,2.21-1.5,3.36-3.2,3.36-1.86,0-3.31-1.34-3.31-3.37,0-1.74,1.17-3.32,3.22-3.31,1.93,0,3.28,1.38,3.28,3.32Zm-3.19,2.77c.36,0,.87-.19,1.27-.79.45-.69.54-1.33.52-2.16-.03-.82-.26-1.53-.72-2.03-.2-.22-.61-.54-1.14-.53-.53,0-.93.34-1.12.56-.45.51-.66,1.23-.66,2.05s.11,1.46.58,2.14c.41.59.93.75,1.29.75Zm3.83.07v.35h2.64v-.35c-.66-.06-.74-.12-.76-.82v-1.82h.71c.71,0,1.09.07,1.14.78h.31v-2.11h-.31c-.04.69-.22.76-1,.76h-.84v-2.21c.23-.03.35-.04.76-.04,1.25,0,1.65,0,1.82.99h.31l-.1-1.56h-4.68v.34c.46.05.66.07.72.37.04.2.05.9.05,1.16v2.24c0,.17-.01.94-.02,1.1-.02.7-.1.76-.76.82Zm-54.86.35v-.35c.63-.08.75-.15.76-.82v-3.4c0-1.33,0-1.37-.76-1.47v-.35h2.65v.35c-.75.07-.75.11-.75,1.47v2.58c0,.22,0,.94.03,1.13.04.39.23.48.72.51v.35h-2.65Zm28.12,0v-.35c.62-.08.75-.15.76-.82v-3.4c0-1.33,0-1.37-.76-1.47v-.35h2.65v.35c-.75.07-.75.11-.75,1.47v2.58c0,.22,0,.94.03,1.13.04.39.22.48.72.51v.35h-2.65Zm-35.89,0v-.35c.53-.03.72-.04.8-.4.09-.43.12-4.21.12-4.87-.35-.32-.5-.39-.92-.42v-.35h1.92c.53.76.65.93,1.59,2.1l1.78,2.21v-2.86c0-1.01-.04-1.07-1.05-1.1v-.35h2.51v.35c-.7,0-.76.15-.76,1.19l-.09,4.93h-.38l-.57-.71c-.29-.36-.58-.72-.87-1.08l-2.52-3.11v3.31c0,1.03.07,1.07,1.05,1.16v.35h-2.61Zm30.61-1.99l.33-.04c.35,1.04.94,1.6,1.9,1.6.68,0,1.28-.29,1.28-.98,0-.72-.7-1.01-1-1.14-.25-.1-.52-.18-.78-.28-.52-.19-1.51-.59-1.51-1.83s.94-1.86,2.03-1.86c.43,0,.92.09,1.47.44l.39-.28.21,1.89-.32.06c-.11-.42-.19-.61-.44-.94-.31-.4-.74-.58-1.25-.58-.68,0-1.07.33-1.07.83,0,.76.75,1.01,1.46,1.24.36.12.66.22.92.37.51.3.92.86.92,1.63,0,1.11-.91,2.02-2.25,2.02-.87,0-1.4-.34-1.65-.51l-.53-.38-.09-1.26Zm10.49,1.99v-.27c.59,0,.75-.22.75-.73v-4.7h-.79c-.72,0-1.2-.03-1.26,1.11h-.33l.05-1.79h5.8l.05,1.79h-.34c-.05-1.14-.53-1.11-1.25-1.11h-.79v4.7c0,.51.16.72.75.73v.27h-2.63Zm-45.99-6.38v.35c-.85.06-.85.09-.86,1.45v1.5c0,.78.02,1.45.43,2.05.33.47.88.54,1.16.54.91,0,1.42-.47,1.63-1.23.18-.59.19-1.71.19-2.46,0-.23,0-1,0-1.2-.04-.58-.34-.6-.91-.64v-.35h2.43v.35c-.6-.01-.72.12-.76.76,0,.15-.08,1.92-.09,2.2-.02.48-.05.97-.15,1.43-.43,1.72-2.11,1.81-2.55,1.81-.35,0-1.08-.05-1.67-.45-.95-.64-.96-1.6-.96-2.63v-1.45c0-.69,0-1-.03-1.16-.05-.4-.25-.48-.73-.5v-.35h2.87Zm22.62,0v.35c-.61.09-.7.26-1.22,1.53l-1.94,4.64h-.34l-1.74-4.71c-.43-1.21-.49-1.36-1.13-1.46v-.35h3.03v.35c-.52.02-.85.04-.85.41,0,.18.04.33.22.87l1.11,3.25,1.3-3.36c.08-.22.19-.52.19-.68,0-.46-.45-.48-.85-.49v-.35h2.23Zm30.25,6.38v-.35c.5-.05.69-.07.81-.2.15-.14.15-.3.15-1v-1.12l-1.69-2.63c-.46-.69-.47-.71-1.08-.74v-.35h3.32v.35c-.67.02-.97.04-.97.34,0,.17.12.37.28.64l.97,1.6.9-1.59c.16-.32.25-.5.25-.65,0-.31-.26-.31-.71-.34v-.35h2.49v.35c-.64.02-.83.21-1.56,1.4l-.99,1.66v1.33c0,1.16,0,1.25.95,1.3v.35h-3.14Zm-24.79,0c0-.46.08-1.22.13-1.65h-.31c-.22,1.14-.86,1.08-1.78,1.08-.85,0-1.02-.23-1.02-.64v-1.78h.69c.79,0,1.01.07,1.01.78h.31v-2.11h-.31c-.06.57-.18.76-1,.76h-.7v-2.25h.78c1.09,0,1.47.08,1.62.95h.29l-.04-1.52h-4.54v.34c.46.05.66.07.72.38.04.2.05.9.05,1.15v2.24c0,.17,0,.94-.01,1.09-.02.7-.1.76-.76.82v.35h4.86Zm84.52-2.81v.34c-.58.03-.58.2-.6,1.41v.48c-.49.31-1.2.75-2.46.75-2.2,0-3.25-1.66-3.25-3.34,0-2.04,1.38-3.37,3.12-3.37,1.09,0,1.72.41,2.24.72l.33-.38.05,2-.26.05c-.13-.38-.33-.82-.81-1.3-.21-.21-.62-.47-1.26-.47-1.11,0-2.04.94-2.04,2.78,0,1.47.72,2.72,1.96,2.72.71,0,1.08-.5,1.11-.54.11-.17.14-.33.13-.6-.03-.81-.14-.83-.85-.9v-.34h2.57Zm-81.55-.61c.17.04.41.06.6.06.72,0,1.27-.57,1.3-1.08.04-.74-.33-1.38-1.51-1.38-.16,0-.26,0-.39.04v2.36Zm0,1.39c0,1.46,0,1.66.78,1.68v.35h-2.67v-.35c.69-.05.76-.16.77-.85,0-.26,0-.56,0-.82v-2.31c0-.77,0-1.04-.04-1.24-.05-.35-.22-.42-.74-.46v-.34h2.89c1.57,0,2.07.76,2.07,1.64,0,.62-.38,1.42-1.26,1.69l1.13,1.97c.41.75.62.92,1.14,1v.21c-.14,0-.27.02-.42.02-1.2,0-1.7-.41-2.21-1.49l-.35-.75c-.38-.8-.5-.75-1.11-.77v.83Z"></path></svg> 